<?xml version="1.0" encoding="iso-8859-1"?>
<!-- Generator: Adobe Illustrator 19.0.0, SVG Export Plug-In . SVG Version: 6.00 Build 0)  -->
<svg version="1.1" id="Layer_1" xmlns="http://www.w3.org/2000/svg" xmlns:xlink="http://www.w3.org/1999/xlink" x="0px" y="0px"
	 viewBox="0 0 480 480" style="enable-background:new 0 0 480 480;" xml:space="preserve">
<g id="XMLID_935_">
	<g>
		<g>
			<path d="M140,410h-20v-20c0-5.523-4.478-10-10-10c-5.522,0-10,4.477-10,10v20c0,11.028,8.972,20,20,20h20c5.522,0,10-4.477,10-10
				S145.522,410,140,410z"/>
			<path d="M110,160c5.522,0,10-4.477,10-10v-20h20c5.522,0,10-4.477,10-10s-4.478-10-10-10h-20c-11.028,0-20,8.972-20,20v20
				C100,155.523,104.478,160,110,160z"/>
			<path d="M452.103,60.073C445.224,56.924,440,48.398,440,40c0-8.251,5.183-15.765,12.894-18.696
				c4.251-1.616,7.106-5.75,7.106-10.29C460,4.941,455.06,0,448.986,0H40C17.944,0,0,17.944,0,40v410c0,16.542,13.458,30,30,30h420
				c16.542,0,30-13.458,30-30V90C480,74.165,467.667,61.156,452.103,60.073z M40,20h385.409C421.947,25.973,420,32.848,420,40
				c0,7.025,1.831,13.918,5.033,20H40c-11.028,0-20-8.972-20-20S28.972,20,40,20z M50,460H30c-5.514,0-10-4.486-10-10V74.632
				C25.887,78.044,32.72,80,40,80h10V460z M460,450c0,5.514-4.486,10-10,10H70V80h380c5.514,0,10,4.486,10,10V450z"/>
			<path d="M410,110h-20c-5.522,0-10,4.477-10,10s4.478,10,10,10h20v20c0,5.523,4.478,10,10,10c5.522,0,10-4.477,10-10v-20
				C430,118.972,421.028,110,410,110z"/>
			<path d="M420,380c-5.522,0-10,4.477-10,10v20h-20c-5.522,0-10,4.477-10,10s4.478,10,10,10h20c11.028,0,20-8.972,20-20v-20
				C430,384.477,425.522,380,420,380z"/>
			<path d="M400,276.003c0-24.515-19.944-44.459-44.46-44.459c-6.703,0-13.24,1.545-19.146,4.374
				c-5.003-28.273-29.753-49.815-59.441-49.815c-16.59,0-31.961,6.598-43.169,18.127c-11.208-11.529-26.579-18.127-43.169-18.127
				c-33.285,0-60.364,27.079-60.364,60.364c0,16.693,7.356,32.397,20.181,43.085l64.229,53.524
				c5.358,4.465,12.149,6.924,19.124,6.924c6.975,0,13.766-2.459,19.123-6.924l28.123-23.435l29.868,24.89
				c4.231,3.527,9.596,5.469,15.106,5.469c5.508,0,10.874-1.942,15.105-5.469l43.947-36.622
				C394.553,299.995,400,288.366,400,276.003z M240.102,327.712c-1.77,1.475-4.015,2.288-6.319,2.288s-4.549-0.812-6.32-2.288
				l-64.229-53.524c-8.252-6.876-12.984-16.98-12.984-27.721c0-22.257,18.107-40.364,40.364-40.364
				c14.284,0,27.219,7.318,34.604,19.576c1.808,3.004,5.059,4.84,8.565,4.84s6.756-1.837,8.565-4.84
				c7.385-12.258,20.321-19.576,34.604-19.576c18.669,0,34.419,12.741,39.012,29.984c-5.998-2.937-12.66-4.543-19.497-4.543
				c-24.516,0-44.46,19.944-44.46,44.459c0,11.693,4.874,22.731,13.439,30.59L240.102,327.712z M372.252,292.544l-43.946,36.622
				c-1.291,1.075-3.315,1.075-4.606,0l-43.945-36.621c-4.924-4.104-7.748-10.133-7.748-16.542c0-13.486,10.973-24.459,24.46-24.459
				c8.657,0,16.496,4.436,20.971,11.866c1.809,3.004,5.06,4.84,8.566,4.84c3.506,0,6.756-1.836,8.566-4.84
				c4.475-7.43,12.315-11.866,20.97-11.866c13.487,0,24.46,10.972,24.46,24.459C380,282.413,377.176,288.442,372.252,292.544z"/>
		</g>
	</g>
</g>
<g>
</g>
<g>
</g>
<g>
</g>
<g>
</g>
<g>
</g>
<g>
</g>
<g>
</g>
<g>
</g>
<g>
</g>
<g>
</g>
<g>
</g>
<g>
</g>
<g>
</g>
<g>
</g>
<g>
</g>
</svg>
