<svg xmlns="http://www.w3.org/2000/svg" width="24" height="24" viewBox="0 0 24 24">
    <defs>
        <linearGradient id="v6mduhifwa" x1="50%" x2="50%" y1="0%" y2="100%">
            <stop offset="0%" stop-color="#FFD677"/>
            <stop offset="100%" stop-color="#F7AA45"/>
        </linearGradient>
        <linearGradient id="dkfkk30hhb" x1="21.205%" x2="21.205%" y1="43.042%" y2="100.632%">
            <stop offset="0%" stop-color="#FFF"/>
            <stop offset="100%" stop-color="#FFF" stop-opacity=".9"/>
        </linearGradient>
    </defs>
    <g fill="none" fill-rule="evenodd">
        <g>
            <g>
                <path fill="url(#v6mduhifwa)" d="M.516 7.143c.812-3.928 3.31-6.115 7.207-6.776 2.88-.489 5.762-.495 8.637.014 4.012.709 6.424 3.024 7.192 7.011.594 3.082.603 6.196-.009 9.274-.821 3.9-3.384 6.309-7.266 6.967-2.88.489-5.762.495-8.637-.014-4.012-.709-6.435-3.14-7.203-7.127-.624-3.102-.564-6.235.08-9.349z" transform="translate(-21 -569) translate(21 569)"/>
                <path fill="url(#dkfkk30hhb)" d="M12 3.75c-4.556 0-8.25 3.694-8.25 8.25s3.694 8.25 8.25 8.25 8.25-3.694 8.25-8.25S16.556 3.75 12 3.75zm3.805 12.388c-.13.13-.301.195-.472.195-.17 0-.341-.065-.47-.195l-3.334-3.333c-.126-.125-.196-.294-.196-.472V8c0-.369.299-.667.667-.667.368 0 .667.298.667.667v4.057l3.138 3.138c.26.261.26.682 0 .943z" transform="translate(-21 -569) translate(21 569)"/>
            </g>
        </g>
    </g>
</svg>
