<svg xmlns="http://www.w3.org/2000/svg" width="24" height="24" viewBox="0 0 24 24">
    <defs>
        <linearGradient id="ghd4ngt38a" x1="50%" x2="50%" y1="0%" y2="100%">
            <stop offset="0%" stop-color="#9FD465"/>
            <stop offset="100%" stop-color="#70B129"/>
        </linearGradient>
    </defs>
    <g fill="none" fill-rule="evenodd">
        <g>
            <g>
                <path fill="url(#ghd4ngt38a)" d="M.516 7.143c.812-3.928 3.31-6.115 7.207-6.776 2.88-.489 5.762-.495 8.637.014 4.012.709 6.424 3.024 7.192 7.011.594 3.082.603 6.196-.009 9.274-.821 3.9-3.384 6.309-7.266 6.967-2.88.489-5.762.495-8.637-.014-4.012-.709-6.435-3.14-7.203-7.127-.624-3.102-.564-6.235.08-9.349z" transform="translate(-21 -467) translate(21 467)"/>
                <path stroke="#FFF" stroke-linecap="round" stroke-linejoin="round" stroke-width="1.5" d="M13.5 11.5h5m-5 3h5M6 17.5h12.5" transform="translate(-21 -467) translate(21 467)"/>
                <path fill="#FFF" d="M10.786 4.025c-.053-.016-.11-.025-.167-.025-.316 0-.572.262-.572.585v4.782c-.532-.44-1.21-.704-1.948-.704C6.387 8.663 5 10.082 5 11.831 5 13.581 6.387 15 8.099 15c1.711 0 3.099-1.419 3.099-3.169 0-.074-.003-.147-.007-.22l.001-6.04c.534.336 1.033.728 1.49 1.169.114.109.225.22.334.337.218.233.58.24.808.017.228-.223.235-.593.017-.826-.123-.131-.247-.257-.375-.38-.766-.738-1.64-1.355-2.589-1.826l-.091-.037z" transform="translate(-21 -467) translate(21 467)"/>
            </g>
        </g>
    </g>
</svg>
