<svg xmlns="http://www.w3.org/2000/svg" width="24" height="24" viewBox="0 0 24 24">
    <defs>
        <linearGradient id="0783s0j89a" x1="0%" x2="0%" y1="0%" y2="100%">
            <stop offset="0%" stop-color="#3CA2FF"/>
            <stop offset="100%" stop-color="#008FFF"/>
        </linearGradient>
        <linearGradient id="prx3tly02b" x1="21.839%" x2="21.839%" y1="43.679%" y2="100%">
            <stop offset="0%" stop-color="#FFF"/>
            <stop offset="100%" stop-color="#FFF" stop-opacity=".9"/>
        </linearGradient>
    </defs>
    <g fill="none" fill-rule="evenodd">
        <g>
            <g>
                <path fill="url(#0783s0j89a)" d="M.516 7.143c.812-3.928 3.31-6.115 7.207-6.776 2.88-.489 5.762-.495 8.637.014 4.012.709 6.424 3.024 7.192 7.011.594 3.082.603 6.196-.009 9.274-.821 3.9-3.384 6.309-7.266 6.967-2.88.489-5.762.495-8.637-.014-4.012-.709-6.435-3.14-7.203-7.127-.624-3.102-.564-6.235.08-9.349z" transform="translate(-21 -433) translate(21 433)"/>
                <path fill="url(#prx3tly02b)" d="M3.995 9.479c-.245.48-.245 1.11-.245 2.371v3.3c0 1.26 0 1.89.245 2.371.216.424.56.768.984.984.48.245 1.11.245 2.371.245h9.3c1.26 0 1.89 0 2.372-.245.423-.216.767-.56.983-.983.245-.482.245-1.112.245-2.372v-3.3c0-1.26 0-1.89-.245-2.371-.216-.424-.56-.768-.983-.984-.482-.245-1.112-.245-2.372-.245h-9.3c-1.26 0-1.89 0-2.371.245-.424.216-.768.56-.984.984zm8.567.571l.06.004.068.015.057.02.017.008c.556.27 1.067.623 1.516 1.046.075.07.148.142.22.217.172.18.166.464-.014.636-.18.172-.464.167-.636-.013-.061-.063-.123-.125-.187-.185-.202-.19-.42-.365-.65-.521v3.442c0 1.025-.832 1.856-1.857 1.856S9.3 15.744 9.3 14.719c0-1.025.831-1.856 1.856-1.856.35 0 .677.096.957.264V10.5c0-.249.201-.45.45-.45z" transform="translate(-21 -433) translate(21 433)"/>
                <path fill="#FFF" fill-opacity=".6" fill-rule="nonzero" d="M7.5 5.25c0-.414.336-.75.75-.75h7.5c.414 0 .75.336.75.75h-9z" transform="translate(-21 -433) translate(21 433)"/>
                <path fill="#FFF" fill-opacity=".9" fill-rule="nonzero" d="M6 6.75c0-.414.336-.75.75-.75h10.5c.414 0 .75.336.75.75H6z" transform="translate(-21 -433) translate(21 433)"/>
            </g>
        </g>
    </g>
</svg>
