<?xml version="1.0" encoding="iso-8859-1"?>
<!-- Generator: Adobe Illustrator 16.0.0, SVG Export Plug-In . SVG Version: 6.00 Build 0)  -->
<!DOCTYPE svg PUBLIC "-//W3C//DTD SVG 1.1//EN" "http://www.w3.org/Graphics/SVG/1.1/DTD/svg11.dtd">
<svg version="1.1" id="Capa_1" xmlns="http://www.w3.org/2000/svg" xmlns:xlink="http://www.w3.org/1999/xlink" x="0px" y="0px"
	 width="487.895px" height="487.895px" viewBox="0 0 487.895 487.895" style="enable-background:new 0 0 487.895 487.895;"
	 xml:space="preserve">
<g>
	<g>
		<path d="M354.861,0H85.913C53.097,0,26.38,26.686,26.38,59.502v368.892c0,32.815,26.717,59.501,59.533,59.501h315.861
			c32.801,0,59.74-26.686,59.74-59.501V108.908L354.861,0z M401.774,445.834H85.913c-9.417,0-16.704-8.025-16.704-17.44V59.502
			c0-9.416,7.288-17.44,16.704-17.44H334.57v47.863c0,20.991,16.703,38.075,37.694,38.282l46.42,0.477v299.709
			C418.686,437.809,411.185,445.834,401.774,445.834z"/>
		<path d="M267.188,96.844c-11.211-1.646-22.396,1.74-30.958,9.156c-8.554,7.424-13.308,18.158-13.308,29.469V269.77
			c-9.183-4.151-19.394-6.469-30.066-6.469c-39.916,0-72.328,32.35-72.328,72.256s32.313,72.262,72.214,72.262
			c39.912,0,72.241-32.354,72.241-72.262c0-0.658-0.059-1.317-0.072-1.978c0.072-0.731,0.062-1.47,0.062-2.228V152.884
			c0-3.38,1.718-6.546,4.511-8.445c2.799-1.905,6.371-2.299,9.525-1.063c25.923,10.225,27.329,31.195,27.849,38.909
			c0.778,11.689,10.974,20.565,22.574,19.756c11.689-0.778,20.54-10.885,19.768-22.574C346.166,134,316.272,103.894,267.188,96.844z
			"/>
	</g>
</g>
<g>
</g>
<g>
</g>
<g>
</g>
<g>
</g>
<g>
</g>
<g>
</g>
<g>
</g>
<g>
</g>
<g>
</g>
<g>
</g>
<g>
</g>
<g>
</g>
<g>
</g>
<g>
</g>
<g>
</g>
</svg>
