<?xml version="1.0" encoding="iso-8859-1"?>
<!-- Generator: Adobe Illustrator 16.0.0, SVG Export Plug-In . SVG Version: 6.00 Build 0)  -->
<!DOCTYPE svg PUBLIC "-//W3C//DTD SVG 1.1//EN" "http://www.w3.org/Graphics/SVG/1.1/DTD/svg11.dtd">
<svg version="1.1" id="Capa_1" xmlns="http://www.w3.org/2000/svg" xmlns:xlink="http://www.w3.org/1999/xlink" x="0px" y="0px"
	 width="476.91px" height="476.909px" viewBox="0 0 476.91 476.909" style="enable-background:new 0 0 476.91 476.909;"
	 xml:space="preserve">
<g>
	<g>
		<path d="M62.802,142.287h121.682c4.45,0,10.95-3.805,13.32-7.999l24.816-41.066H62.802C28.12,93.222,0,121.342,0,156.026v20.779
			C13.266,156.086,36.425,142.287,62.802,142.287z"/>
		<path d="M414.105,67.708H266.913c-8.681,0-19.151,6.125-23.399,13.685l-7.147,11.828l-28.489,47.157
			c-4.246,7.558-14.719,13.684-23.393,13.684H62.802C28.12,154.062,0,182.183,0,216.865v115.794v13.737
			c0,34.685,28.12,62.805,62.802,62.805h351.303c34.685,0,62.805-28.12,62.805-62.805v-13.737V156.026v-25.515
			C476.91,95.829,448.79,67.708,414.105,67.708z M170.416,237.804c2.503,0,4.967,0.178,7.394,0.463
			c10.614-37.259,44.833-64.57,85.501-64.57c49.135,0,88.969,39.834,88.969,88.969c0,10.103-1.771,19.776-4.869,28.825
			c16.314,4.248,28.421,18.943,28.421,36.592c0,20.951-16.992,37.938-37.942,37.938H170.416c-35.403,0-64.115-28.701-64.115-64.111
			C106.301,266.497,135.012,237.804,170.416,237.804z"/>
		<path d="M226.281,336.507c10.76,0,20.017-6.393,24.201-15.585c2.023-4.456,2.324-12.483,2.341-17.372
			c0.052-15.642,0.052-46.507,0.052-46.507c34.359,0,32.3,20.595,28.28,32.416c-1.579,4.629-0.641,5.402,2.669,1.8
			c41.93-45.661-16.45-60.506-39.634-64.454c-4.814-0.815-8.768,2.733-8.768,7.62v50.549c-2.855-1.046-5.925-1.65-9.133-1.65
			c-14.689,0-26.591,11.905-26.591,26.597C199.698,324.593,211.592,336.507,226.281,336.507z"/>
	</g>
</g>
<g>
</g>
<g>
</g>
<g>
</g>
<g>
</g>
<g>
</g>
<g>
</g>
<g>
</g>
<g>
</g>
<g>
</g>
<g>
</g>
<g>
</g>
<g>
</g>
<g>
</g>
<g>
</g>
<g>
</g>
</svg>
